<mxfile host="app.diagrams.net" modified="2024-05-17T02:25:28.221Z" agent="Mozilla/5.0 (Windows NT 10.0; Win64; x64; rv:125.0) Gecko/20100101 Firefox/125.0" etag="dHPtDZP4JkGEZpHn0uz9" version="24.3.1" type="github">
  <diagram id="R2lEEEUBdFMjLlhIrx00" name="Page-1">
    <mxGraphModel dx="880" dy="480" grid="1" gridSize="10" guides="1" tooltips="1" connect="1" arrows="1" fold="1" page="1" pageScale="1" pageWidth="850" pageHeight="1100" math="0" shadow="0" extFonts="Permanent Marker^https://fonts.googleapis.com/css?family=Permanent+Marker">
      <root>
        <mxCell id="0" />
        <mxCell id="1" parent="0" />
        <mxCell id="FfzF1mohbZUtqVLZ20S2-14" value="1" style="edgeStyle=orthogonalEdgeStyle;rounded=0;orthogonalLoop=1;jettySize=auto;html=1;entryX=-0.008;entryY=0.5;entryDx=0;entryDy=0;entryPerimeter=0;" parent="1" source="FfzF1mohbZUtqVLZ20S2-1" target="FfzF1mohbZUtqVLZ20S2-33" edge="1">
          <mxGeometry relative="1" as="geometry">
            <mxPoint x="540" y="179" as="targetPoint" />
          </mxGeometry>
        </mxCell>
        <mxCell id="FfzF1mohbZUtqVLZ20S2-1" value="Users" style="rounded=0;whiteSpace=wrap;html=1;" parent="1" vertex="1">
          <mxGeometry x="170" y="150" width="120" height="60" as="geometry" />
        </mxCell>
        <mxCell id="FfzF1mohbZUtqVLZ20S2-4" style="rounded=0;orthogonalLoop=1;jettySize=auto;html=1;entryX=0.25;entryY=0;entryDx=0;entryDy=0;" parent="1" source="FfzF1mohbZUtqVLZ20S2-2" target="FfzF1mohbZUtqVLZ20S2-1" edge="1">
          <mxGeometry relative="1" as="geometry" />
        </mxCell>
        <mxCell id="FfzF1mohbZUtqVLZ20S2-2" value="&lt;u&gt;id_user&lt;/u&gt;" style="ellipse;whiteSpace=wrap;html=1;" parent="1" vertex="1">
          <mxGeometry x="100" y="30" width="120" height="40" as="geometry" />
        </mxCell>
        <mxCell id="FfzF1mohbZUtqVLZ20S2-10" style="rounded=0;orthogonalLoop=1;jettySize=auto;html=1;entryX=0.25;entryY=1;entryDx=0;entryDy=0;" parent="1" source="FfzF1mohbZUtqVLZ20S2-5" target="FfzF1mohbZUtqVLZ20S2-1" edge="1">
          <mxGeometry relative="1" as="geometry" />
        </mxCell>
        <mxCell id="FfzF1mohbZUtqVLZ20S2-5" value="email" style="ellipse;whiteSpace=wrap;html=1;" parent="1" vertex="1">
          <mxGeometry x="100" y="280" width="120" height="40" as="geometry" />
        </mxCell>
        <mxCell id="FfzF1mohbZUtqVLZ20S2-8" style="rounded=0;orthogonalLoop=1;jettySize=auto;html=1;entryX=0;entryY=0;entryDx=0;entryDy=0;" parent="1" source="FfzF1mohbZUtqVLZ20S2-6" target="FfzF1mohbZUtqVLZ20S2-1" edge="1">
          <mxGeometry relative="1" as="geometry" />
        </mxCell>
        <mxCell id="FfzF1mohbZUtqVLZ20S2-6" value="username" style="ellipse;whiteSpace=wrap;html=1;" parent="1" vertex="1">
          <mxGeometry y="100" width="120" height="40" as="geometry" />
        </mxCell>
        <mxCell id="FfzF1mohbZUtqVLZ20S2-9" style="rounded=0;orthogonalLoop=1;jettySize=auto;html=1;entryX=0;entryY=1;entryDx=0;entryDy=0;" parent="1" source="FfzF1mohbZUtqVLZ20S2-7" target="FfzF1mohbZUtqVLZ20S2-1" edge="1">
          <mxGeometry relative="1" as="geometry" />
        </mxCell>
        <mxCell id="FfzF1mohbZUtqVLZ20S2-7" value="password" style="ellipse;whiteSpace=wrap;html=1;" parent="1" vertex="1">
          <mxGeometry y="210" width="120" height="40" as="geometry" />
        </mxCell>
        <mxCell id="FfzF1mohbZUtqVLZ20S2-64" value="1" style="edgeStyle=orthogonalEdgeStyle;rounded=0;orthogonalLoop=1;jettySize=auto;html=1;" parent="1" source="FfzF1mohbZUtqVLZ20S2-12" target="FfzF1mohbZUtqVLZ20S2-33" edge="1">
          <mxGeometry relative="1" as="geometry" />
        </mxCell>
        <mxCell id="FfzF1mohbZUtqVLZ20S2-12" value="Players" style="rounded=0;whiteSpace=wrap;html=1;" parent="1" vertex="1">
          <mxGeometry x="1090" y="150" width="120" height="60" as="geometry" />
        </mxCell>
        <mxCell id="FfzF1mohbZUtqVLZ20S2-57" style="rounded=0;orthogonalLoop=1;jettySize=auto;html=1;entryX=1;entryY=0;entryDx=0;entryDy=0;" parent="1" source="FfzF1mohbZUtqVLZ20S2-17" target="FfzF1mohbZUtqVLZ20S2-12" edge="1">
          <mxGeometry relative="1" as="geometry" />
        </mxCell>
        <mxCell id="FfzF1mohbZUtqVLZ20S2-17" value="K/D/A" style="ellipse;whiteSpace=wrap;html=1;" parent="1" vertex="1">
          <mxGeometry x="1260" y="70" width="120" height="40" as="geometry" />
        </mxCell>
        <mxCell id="3yhXv05m-eBkMZo2wnYp-3" style="rounded=0;orthogonalLoop=1;jettySize=auto;html=1;entryX=0.75;entryY=1;entryDx=0;entryDy=0;" edge="1" parent="1" source="FfzF1mohbZUtqVLZ20S2-30" target="FfzF1mohbZUtqVLZ20S2-1">
          <mxGeometry relative="1" as="geometry" />
        </mxCell>
        <mxCell id="FfzF1mohbZUtqVLZ20S2-30" value="id_player" style="ellipse;whiteSpace=wrap;html=1;" parent="1" vertex="1">
          <mxGeometry x="240" y="280" width="120" height="40" as="geometry" />
        </mxCell>
        <mxCell id="FfzF1mohbZUtqVLZ20S2-33" value="memiliki" style="html=1;whiteSpace=wrap;aspect=fixed;shape=isoRectangle;" parent="1" vertex="1">
          <mxGeometry x="830" y="141" width="130" height="78" as="geometry" />
        </mxCell>
        <mxCell id="FfzF1mohbZUtqVLZ20S2-50" style="rounded=0;orthogonalLoop=1;jettySize=auto;html=1;entryX=0;entryY=0;entryDx=0;entryDy=0;" parent="1" source="FfzF1mohbZUtqVLZ20S2-48" target="FfzF1mohbZUtqVLZ20S2-12" edge="1">
          <mxGeometry relative="1" as="geometry" />
        </mxCell>
        <mxCell id="FfzF1mohbZUtqVLZ20S2-48" value="&lt;u&gt;id_player&lt;/u&gt;" style="ellipse;whiteSpace=wrap;html=1;" parent="1" vertex="1">
          <mxGeometry x="970" y="70" width="120" height="40" as="geometry" />
        </mxCell>
        <mxCell id="FfzF1mohbZUtqVLZ20S2-53" style="rounded=0;orthogonalLoop=1;jettySize=auto;html=1;entryX=0.5;entryY=0;entryDx=0;entryDy=0;" parent="1" source="FfzF1mohbZUtqVLZ20S2-49" target="FfzF1mohbZUtqVLZ20S2-12" edge="1">
          <mxGeometry relative="1" as="geometry" />
        </mxCell>
        <mxCell id="FfzF1mohbZUtqVLZ20S2-49" value="player_name" style="ellipse;whiteSpace=wrap;html=1;" parent="1" vertex="1">
          <mxGeometry x="1110" y="70" width="120" height="40" as="geometry" />
        </mxCell>
        <mxCell id="FfzF1mohbZUtqVLZ20S2-52" value="Teams" style="rounded=0;whiteSpace=wrap;html=1;" parent="1" vertex="1">
          <mxGeometry x="835" y="400" width="120" height="60" as="geometry" />
        </mxCell>
        <mxCell id="FfzF1mohbZUtqVLZ20S2-54" value="&lt;div&gt;League Pro Stats&lt;/div&gt;" style="swimlane;whiteSpace=wrap;html=1;" parent="1" vertex="1">
          <mxGeometry y="360" width="570" height="160" as="geometry" />
        </mxCell>
        <mxCell id="FfzF1mohbZUtqVLZ20S2-56" value="&lt;div&gt;Database player LoL Pro untuk setiap season (Untuk sekarang coba dlu hanya untuk LEC Winter Regular Season 2024 dikarenakan rata-rata game mereka tidak banyak untuk winter)&lt;/div&gt;&lt;div&gt;Pengguna dapat melihat stat dasar pemain (seperti K/D/A, CS/M, GPM, dan KP)&lt;br&gt;atau stat dasar tim yang melakukan kompetisi (seperti winrate, rata-rata durasi game tim, dan persentase first blood)&lt;/div&gt;&lt;div&gt;Pengguna dapat menyimpan pemain favorit mereka dengan menggunakan akun&lt;br&gt;&lt;/div&gt;" style="text;html=1;align=center;verticalAlign=middle;whiteSpace=wrap;rounded=0;" parent="FfzF1mohbZUtqVLZ20S2-54" vertex="1">
          <mxGeometry y="20" width="570" height="130" as="geometry" />
        </mxCell>
        <mxCell id="FfzF1mohbZUtqVLZ20S2-59" style="rounded=0;orthogonalLoop=1;jettySize=auto;html=1;entryX=1;entryY=0.5;entryDx=0;entryDy=0;" parent="1" source="FfzF1mohbZUtqVLZ20S2-58" target="FfzF1mohbZUtqVLZ20S2-12" edge="1">
          <mxGeometry relative="1" as="geometry" />
        </mxCell>
        <mxCell id="FfzF1mohbZUtqVLZ20S2-58" value="CS/M" style="ellipse;whiteSpace=wrap;html=1;" parent="1" vertex="1">
          <mxGeometry x="1260" y="130" width="120" height="40" as="geometry" />
        </mxCell>
        <mxCell id="FfzF1mohbZUtqVLZ20S2-62" style="rounded=0;orthogonalLoop=1;jettySize=auto;html=1;entryX=1;entryY=0.75;entryDx=0;entryDy=0;" parent="1" source="FfzF1mohbZUtqVLZ20S2-60" target="FfzF1mohbZUtqVLZ20S2-12" edge="1">
          <mxGeometry relative="1" as="geometry" />
        </mxCell>
        <mxCell id="FfzF1mohbZUtqVLZ20S2-60" value="GPM" style="ellipse;whiteSpace=wrap;html=1;" parent="1" vertex="1">
          <mxGeometry x="1260" y="190" width="120" height="40" as="geometry" />
        </mxCell>
        <mxCell id="FfzF1mohbZUtqVLZ20S2-63" style="rounded=0;orthogonalLoop=1;jettySize=auto;html=1;entryX=1;entryY=1;entryDx=0;entryDy=0;" parent="1" source="FfzF1mohbZUtqVLZ20S2-61" target="FfzF1mohbZUtqVLZ20S2-12" edge="1">
          <mxGeometry relative="1" as="geometry" />
        </mxCell>
        <mxCell id="FfzF1mohbZUtqVLZ20S2-61" value="KP%" style="ellipse;whiteSpace=wrap;html=1;" parent="1" vertex="1">
          <mxGeometry x="1260" y="250" width="120" height="40" as="geometry" />
        </mxCell>
        <mxCell id="FfzF1mohbZUtqVLZ20S2-66" value="1" style="edgeStyle=orthogonalEdgeStyle;rounded=0;orthogonalLoop=1;jettySize=auto;html=1;entryX=0.5;entryY=1.013;entryDx=0;entryDy=0;entryPerimeter=0;" parent="1" source="FfzF1mohbZUtqVLZ20S2-52" target="FfzF1mohbZUtqVLZ20S2-33" edge="1">
          <mxGeometry relative="1" as="geometry" />
        </mxCell>
        <mxCell id="FfzF1mohbZUtqVLZ20S2-71" style="rounded=0;orthogonalLoop=1;jettySize=auto;html=1;entryX=0;entryY=1;entryDx=0;entryDy=0;" parent="1" source="FfzF1mohbZUtqVLZ20S2-70" target="FfzF1mohbZUtqVLZ20S2-12" edge="1">
          <mxGeometry relative="1" as="geometry" />
        </mxCell>
        <mxCell id="FfzF1mohbZUtqVLZ20S2-70" value="id_team" style="ellipse;whiteSpace=wrap;html=1;" parent="1" vertex="1">
          <mxGeometry x="940" y="219" width="120" height="40" as="geometry" />
        </mxCell>
        <mxCell id="FfzF1mohbZUtqVLZ20S2-76" value="M" style="edgeStyle=orthogonalEdgeStyle;rounded=0;orthogonalLoop=1;jettySize=auto;html=1;entryX=1;entryY=0.5;entryDx=0;entryDy=0;" parent="1" source="FfzF1mohbZUtqVLZ20S2-75" target="FfzF1mohbZUtqVLZ20S2-52" edge="1">
          <mxGeometry relative="1" as="geometry" />
        </mxCell>
        <mxCell id="FfzF1mohbZUtqVLZ20S2-78" value="M" style="edgeStyle=orthogonalEdgeStyle;rounded=0;orthogonalLoop=1;jettySize=auto;html=1;" parent="1" source="FfzF1mohbZUtqVLZ20S2-75" target="FfzF1mohbZUtqVLZ20S2-12" edge="1">
          <mxGeometry relative="1" as="geometry" />
        </mxCell>
        <mxCell id="FfzF1mohbZUtqVLZ20S2-75" value="memiliki" style="html=1;whiteSpace=wrap;aspect=fixed;shape=isoRectangle;" parent="1" vertex="1">
          <mxGeometry x="1090" y="394" width="120" height="72" as="geometry" />
        </mxCell>
        <mxCell id="FfzF1mohbZUtqVLZ20S2-80" style="rounded=0;orthogonalLoop=1;jettySize=auto;html=1;entryX=0.25;entryY=1;entryDx=0;entryDy=0;" parent="1" source="FfzF1mohbZUtqVLZ20S2-79" target="FfzF1mohbZUtqVLZ20S2-12" edge="1">
          <mxGeometry relative="1" as="geometry" />
        </mxCell>
        <mxCell id="FfzF1mohbZUtqVLZ20S2-79" value="team_name" style="ellipse;whiteSpace=wrap;html=1;" parent="1" vertex="1">
          <mxGeometry x="1020" y="270" width="120" height="40" as="geometry" />
        </mxCell>
        <mxCell id="FfzF1mohbZUtqVLZ20S2-83" style="rounded=0;orthogonalLoop=1;jettySize=auto;html=1;entryX=0;entryY=0;entryDx=0;entryDy=0;" parent="1" source="FfzF1mohbZUtqVLZ20S2-81" target="FfzF1mohbZUtqVLZ20S2-52" edge="1">
          <mxGeometry relative="1" as="geometry" />
        </mxCell>
        <mxCell id="FfzF1mohbZUtqVLZ20S2-81" value="&lt;u&gt;id_team&lt;/u&gt;" style="ellipse;whiteSpace=wrap;html=1;" parent="1" vertex="1">
          <mxGeometry x="670" y="360" width="120" height="40" as="geometry" />
        </mxCell>
        <mxCell id="FfzF1mohbZUtqVLZ20S2-89" style="rounded=0;orthogonalLoop=1;jettySize=auto;html=1;entryX=0;entryY=0.5;entryDx=0;entryDy=0;" parent="1" source="FfzF1mohbZUtqVLZ20S2-82" target="FfzF1mohbZUtqVLZ20S2-52" edge="1">
          <mxGeometry relative="1" as="geometry" />
        </mxCell>
        <mxCell id="FfzF1mohbZUtqVLZ20S2-82" value="team_name" style="ellipse;whiteSpace=wrap;html=1;" parent="1" vertex="1">
          <mxGeometry x="670" y="420" width="120" height="40" as="geometry" />
        </mxCell>
        <mxCell id="FfzF1mohbZUtqVLZ20S2-84" style="edgeStyle=orthogonalEdgeStyle;rounded=0;orthogonalLoop=1;jettySize=auto;html=1;exitX=0.5;exitY=1;exitDx=0;exitDy=0;" parent="1" source="FfzF1mohbZUtqVLZ20S2-82" target="FfzF1mohbZUtqVLZ20S2-82" edge="1">
          <mxGeometry relative="1" as="geometry" />
        </mxCell>
        <mxCell id="FfzF1mohbZUtqVLZ20S2-90" style="rounded=0;orthogonalLoop=1;jettySize=auto;html=1;entryX=0;entryY=0.75;entryDx=0;entryDy=0;" parent="1" source="FfzF1mohbZUtqVLZ20S2-85" target="FfzF1mohbZUtqVLZ20S2-52" edge="1">
          <mxGeometry relative="1" as="geometry" />
        </mxCell>
        <mxCell id="FfzF1mohbZUtqVLZ20S2-85" value="winrate" style="ellipse;whiteSpace=wrap;html=1;" parent="1" vertex="1">
          <mxGeometry x="670" y="480" width="120" height="40" as="geometry" />
        </mxCell>
        <mxCell id="FfzF1mohbZUtqVLZ20S2-91" style="rounded=0;orthogonalLoop=1;jettySize=auto;html=1;entryX=0.25;entryY=1;entryDx=0;entryDy=0;" parent="1" source="FfzF1mohbZUtqVLZ20S2-86" target="FfzF1mohbZUtqVLZ20S2-52" edge="1">
          <mxGeometry relative="1" as="geometry" />
        </mxCell>
        <mxCell id="FfzF1mohbZUtqVLZ20S2-86" value="avglengthgame" style="ellipse;whiteSpace=wrap;html=1;" parent="1" vertex="1">
          <mxGeometry x="715" y="530" width="120" height="40" as="geometry" />
        </mxCell>
        <mxCell id="FfzF1mohbZUtqVLZ20S2-92" style="rounded=0;orthogonalLoop=1;jettySize=auto;html=1;entryX=0.5;entryY=1;entryDx=0;entryDy=0;" parent="1" source="FfzF1mohbZUtqVLZ20S2-87" target="FfzF1mohbZUtqVLZ20S2-52" edge="1">
          <mxGeometry relative="1" as="geometry" />
        </mxCell>
        <mxCell id="FfzF1mohbZUtqVLZ20S2-87" value="%firstblood" style="ellipse;whiteSpace=wrap;html=1;" parent="1" vertex="1">
          <mxGeometry x="840" y="530" width="120" height="40" as="geometry" />
        </mxCell>
        <mxCell id="FfzF1mohbZUtqVLZ20S2-94" style="rounded=0;orthogonalLoop=1;jettySize=auto;html=1;entryX=0.75;entryY=1;entryDx=0;entryDy=0;" parent="1" source="FfzF1mohbZUtqVLZ20S2-88" target="FfzF1mohbZUtqVLZ20S2-52" edge="1">
          <mxGeometry relative="1" as="geometry" />
        </mxCell>
        <mxCell id="FfzF1mohbZUtqVLZ20S2-88" value="player_name" style="ellipse;whiteSpace=wrap;html=1;" parent="1" vertex="1">
          <mxGeometry x="970" y="530" width="120" height="40" as="geometry" />
        </mxCell>
        <mxCell id="FfzF1mohbZUtqVLZ20S2-95" style="rounded=0;orthogonalLoop=1;jettySize=auto;html=1;entryX=1;entryY=1;entryDx=0;entryDy=0;" parent="1" source="FfzF1mohbZUtqVLZ20S2-93" target="FfzF1mohbZUtqVLZ20S2-52" edge="1">
          <mxGeometry relative="1" as="geometry" />
        </mxCell>
        <mxCell id="FfzF1mohbZUtqVLZ20S2-93" value="id_player" style="ellipse;whiteSpace=wrap;html=1;" parent="1" vertex="1">
          <mxGeometry x="990" y="460" width="120" height="40" as="geometry" />
        </mxCell>
      </root>
    </mxGraphModel>
  </diagram>
</mxfile>
